<svg version="1.1" xmlns="http://www.w3.org/2000/svg" x="0px" y="0px" viewBox="0 0 32 32">
<style type="text/css">
	.st0{fill:#FFFFFF}
</style>
<path class="st0" d="M16,0.4C7.2,0.4,0.1,7.6,0.1,16.3c0,7,4.6,13,10.9,15.1c0.8,0.1,1.1-0.3,1.1-0.8c0-0.4,0-1.4,0-2.7
	c-4.4,1-5.4-2.1-5.4-2.1C6,24,4.9,23.5,4.9,23.5c-1.4-1,0.1-1,0.1-1c1.6,0.1,2.4,1.6,2.4,1.6c1.4,2.4,3.7,1.7,4.6,1.3
	c0.1-1,0.6-1.7,1-2.1c-3.5-0.4-7.2-1.8-7.2-7.8c0-1.7,0.6-3.2,1.6-4.3c-0.2-0.4-0.7-2,0.2-4.2C7.7,7,9,6.6,12,8.7
	c1.3-0.4,2.6-0.5,4-0.5c1.3,0,2.7,0.2,4,0.5C23,6.6,24.4,7,24.4,7c0.9,2.2,0.3,3.8,0.2,4.2c1,1.1,1.6,2.5,1.6,4.3
	c0,6.1-3.7,7.4-7.3,7.8c0.6,0.5,1.1,1.5,1.1,2.9c0,2.1,0,3.8,0,4.4c0,0.4,0.3,0.9,1.1,0.8c6.3-2.1,10.9-8.1,10.9-15.1
	C31.9,7.6,24.8,0.4,16,0.4z"/>
</svg>
