<svg xmlns="http://www.w3.org/2000/svg" viewBox="0 0 653.666 130.333"><path fill="#55328E" opacity="0.5" d="M634.172,66.306c-3.148,0-6.049-0.733-8.686-2.203c-2.646-1.467-4.777-3.536-6.406-6.208 c-1.63-2.669-2.444-5.657-2.444-8.968c0-3.096,0.736-5.967,2.203-8.61c1.466-2.643,3.552-4.764,6.243-6.368 c2.695-1.6,5.727-2.402,9.09-2.402c3.147,0,6.062,0.72,8.733,2.164c2.666,1.44,4.804,3.497,6.407,6.166 c1.597,2.669,2.398,5.687,2.398,9.05c0,3.151-0.73,6.036-2.203,8.649c-1.467,2.617-3.553,4.726-6.244,6.329 C640.565,65.504,637.535,66.306,634.172,66.306z M634.172,62.06c3.734,0,6.837-1.242,9.294-3.722 c2.45-2.483,3.683-5.622,3.683-9.412s-1.232-6.928-3.683-9.412c-2.457-2.483-5.56-3.725-9.294-3.725 c-3.683,0-6.753,1.242-9.207,3.725c-2.457,2.483-3.682,5.622-3.682,9.412s1.225,6.928,3.682,9.412 C627.419,60.818,630.489,62.06,634.172,62.06z M627.765,40.277h6.166c2.241,0,3.995,0.492,5.246,1.479 c1.259,0.991,1.884,2.363,1.884,4.126c0,2.242-0.88,3.897-2.646,4.966l3.526,5.924h-4.882l-2.646-4.885h-2.32v4.885h-4.327V40.277 z M632.092,48.125h1.683c1.01,0,1.733-0.16,2.157-0.479c0.43-0.322,0.645-0.854,0.645-1.603c0-1.333-0.938-2.001-2.802-2.001 h-1.683V48.125z"/><path fill="#55328E" d="M63.596,127.247c-11.938,0-22.511-2.353-31.715-7.057c-9.207-4.704-16.441-11.508-21.7-20.41 C4.919,90.879,2.29,80.458,2.29,68.52c0-11.329,2.553-21.522,7.663-30.577C15.06,28.89,22.37,21.731,31.88,16.47 c9.508-5.259,20.486-7.891,32.93-7.891c6.271,0,12.671,0.835,19.196,2.504c6.525,1.669,12.114,3.922,16.768,6.753L96.98,37.411 c-11.028-5.463-21.65-8.194-31.867-8.194c-7.488,0-14.165,1.569-20.03,4.704c-5.869,3.137-10.471,7.64-13.81,13.506 c-3.338,5.868-5.008,12.747-5.008,20.638c0,11.837,3.54,21.222,10.623,28.149c7.08,6.931,16.64,10.395,28.68,10.395 c5.259,0,10.874-0.758,16.845-2.276c5.968-1.517,11.582-3.642,16.844-6.373l2.428,20.03c-5.16,2.936-11.078,5.213-17.754,6.829 C77.253,126.436,70.475,127.247,63.596,127.247z"/><path fill="#55328E" d="M115.493,2.661h21.093v45.759v77.158h-21.093v-77.24V2.661z"/><path fill="#55328E" d="M163.443,32.555c-3.642,0-6.652-1.188-9.028-3.566c-2.378-2.375-3.566-5.285-3.566-8.725 c0-3.438,1.188-6.321,3.566-8.65c2.376-2.326,5.387-3.49,9.028-3.49c3.642,0,6.651,1.164,9.029,3.49 c2.376,2.329,3.566,5.212,3.566,8.65c0,3.542-1.19,6.475-3.566,8.801C170.095,31.394,167.085,32.555,163.443,32.555z  M152.973,48.337h21.093v39.002v38.238h-21.093V87.339V48.337z"/><path fill="#55328E" d="M228.542,127.55c-8.398,0-15.808-1.619-22.231-4.855c-6.426-3.236-11.407-7.891-14.948-13.961 c-3.542-6.07-5.311-13.202-5.311-21.396c0-7.891,1.719-14.922,5.159-21.094c3.438-6.169,8.37-11.025,14.796-14.568 c6.423-3.54,13.884-5.311,22.383-5.311c4.552,0,9.079,0.508,13.582,1.518c4.5,1.013,8.27,2.378,11.305,4.097l-2.58,17.907 c-6.779-3.236-13.558-4.856-20.334-4.856c-7.083,0-12.724,1.973-16.92,5.919c-4.199,3.945-6.298,9.256-6.298,15.933 c0,6.882,2.125,12.269,6.374,16.161c4.25,3.896,10.065,5.843,17.451,5.843c6.473,0,13.505-1.567,21.093-4.704l2.125,17.299 c-3.239,1.924-7.132,3.415-11.685,4.477C237.95,127.019,233.296,127.55,228.542,127.55z"/><path fill="#55328E" d="M266.478,2.661h21.093v74.508l27.77-28.832h26.101l-34.751,34.6l40.366,42.641h-27.164l-32.322-35.205 v35.205h-21.093V2.661z"/><path fill="#55328E" d="M359.953,65.789h-15.022V48.337h15.022V27.396h21.094v20.941h18.361v17.452h-18.361v59.789h-21.094V65.789z "/><path fill="#55328E" d="M438.256,128.005c-6.778,0-12.875-1.669-18.286-5.008c-5.412-3.338-9.688-8.118-12.822-14.34 c-3.138-6.222-4.704-13.377-4.704-21.473c0-7.485,1.541-14.34,4.628-20.562c3.085-6.221,7.46-11.229,13.127-15.022 c5.664-3.793,12.038-5.691,19.12-5.691c5.259,0,10.039,1.088,14.34,3.263c4.299,2.177,7.714,5.236,10.244,9.181l0.303-10.016 h20.184v77.24h-20.184l-0.303-9.863c-2.633,4.047-6.123,7.108-10.471,9.181C449.08,126.967,444.022,128.005,438.256,128.005z  M444.022,109.188c5.968,0,10.874-2.072,14.72-6.222c3.844-4.147,5.766-9.508,5.766-16.086c0-6.473-1.896-11.784-5.689-15.933 c-3.794-4.147-8.726-6.222-14.796-6.222s-11.002,2.075-14.796,6.222c-3.793,4.148-5.689,9.46-5.689,15.933 c0,6.578,1.92,11.938,5.766,16.086C433.146,107.116,438.053,109.188,444.022,109.188z"/><path fill="#55328E" d="M500.776,2.661h21.093v45.677v77.24h-21.093v-77.24V2.661z"/><path fill="#55328E" d="M578.773,128.005c-9.006,0-16.871-1.619-23.598-4.855c-6.729-3.236-11.965-7.967-15.705-14.188 c-3.744-6.222-5.615-13.53-5.615-21.929c0-7.788,1.617-14.795,4.855-21.017c3.237-6.222,7.84-11.127,13.81-14.719 c5.968-3.59,12.898-5.388,20.79-5.388c7.283,0,13.681,1.544,19.195,4.629c5.514,3.087,9.812,7.511,12.899,13.278 c3.085,5.766,4.628,12.596,4.628,20.486c0,3.338-0.254,6.373-0.758,9.104h-54.479c2.63,11.533,11.382,17.3,26.252,17.3 c4.652,0,9.182-0.479,13.582-1.441c4.4-0.961,8.37-2.353,11.912-4.174l2.125,16.541c-3.643,2.025-8.095,3.592-13.354,4.704 C590.053,127.448,584.54,128.005,578.773,128.005z M589.852,78.687c-0.508-5.361-2.253-9.484-5.235-12.367 c-2.986-2.883-6.958-4.325-11.913-4.325c-4.855,0-8.854,1.441-11.987,4.325c-3.138,2.883-5.16,7.006-6.07,12.367H589.852z"/></svg>
