<svg version="1.1" xmlns="http://www.w3.org/2000/svg" x="0px" y="0px" viewBox="0 0 246.7 45">
<style type="text/css">
	.st0 {fill:#fff}
	.st1{fill:#D02C00;}
	.st2{fill:#FB8600;}
	.st3{fill:#097AD2;}
</style>
	<polygon class="st0" points="67.8,32 71.6,32 64.3,21.7 71.2,13.5 67.3,13.5 61.9,20 60.1,22.2 60.1,13.5 56.9,13.5 56.9,32
		60.1,32 60.1,26.2 62.2,24 	"/>
	<path class="st0" d="M75.1,25c0-0.6,0.1-1.2,0.2-1.7c0.1-0.6,0.3-1,0.6-1.4c0.3-0.4,0.6-0.7,1-1c0.4-0.2,0.9-0.4,1.5-0.4
		c0.6,0,1.1,0.1,1.5,0.4s0.8,0.6,1.1,1c0.3,0.4,0.5,0.9,0.6,1.4c0.1,0.5,0.2,1.1,0.2,1.7v0.3c0,0.6-0.1,1.2-0.2,1.8
		c-0.1,0.5-0.3,1-0.6,1.4c-0.3,0.4-0.6,0.7-1,1c-0.4,0.2-0.9,0.4-1.5,0.4c-0.6,0-1.1-0.1-1.5-0.4c-0.4-0.2-0.8-0.6-1-1
		c-0.3-0.4-0.5-0.9-0.6-1.4c-0.1-0.6-0.2-1.1-0.2-1.8V25z M72,25.3c0,1,0.1,1.9,0.4,2.8c0.3,0.9,0.7,1.6,1.2,2.2
		c0.5,0.6,1.2,1.1,2,1.5c0.8,0.3,1.7,0.5,2.7,0.5c1,0,1.9-0.2,2.7-0.5c0.8-0.3,1.5-0.8,2-1.5c0.5-0.6,1-1.4,1.2-2.2
		c0.3-0.8,0.4-1.8,0.4-2.8V25c0-1-0.2-1.9-0.4-2.8c-0.3-0.8-0.7-1.6-1.2-2.2c-0.5-0.6-1.2-1.1-2-1.5c-0.8-0.3-1.7-0.5-2.7-0.5
		s-1.9,0.2-2.7,0.5c-0.8,0.4-1.5,0.8-2,1.5c-0.6,0.6-1,1.4-1.2,2.2C72.1,23.1,72,24,72,25V25.3z"/>
	<path class="st0" d="M87.6,18.3V32h3.1V22c0.2-0.5,0.6-0.8,1-1.1c0.4-0.3,1-0.4,1.6-0.4c0.4,0,0.7,0,1,0.1c0.3,0.1,0.6,0.2,0.8,0.4
		c0.2,0.2,0.4,0.5,0.5,0.8c0.1,0.3,0.2,0.8,0.2,1.2V32h3.1v-9.2c0,0,0-0.1,0-0.1v-0.1c0.2-0.6,0.5-1.1,0.9-1.5
		c0.4-0.4,1-0.6,1.7-0.6c0.4,0,0.7,0,1,0.1c0.3,0.1,0.5,0.2,0.8,0.4c0.2,0.2,0.4,0.5,0.5,0.8c0.1,0.3,0.2,0.8,0.2,1.2V32h3.1v-8.9
		c0-0.9-0.1-1.7-0.3-2.3c-0.2-0.6-0.5-1.2-0.9-1.6c-0.4-0.4-0.9-0.7-1.4-0.9c-0.6-0.2-1.2-0.3-1.9-0.3c-1,0-1.8,0.2-2.5,0.6
		c-0.7,0.4-1.3,0.9-1.7,1.5c-0.4-0.7-0.9-1.2-1.5-1.6c-0.7-0.3-1.4-0.5-2.2-0.5c-0.9,0-1.6,0.1-2.3,0.4c-0.7,0.3-1.2,0.7-1.7,1.2
		l-0.1-1.4H87.6z"/>
	<path class="st0" d="M111,15.9c0.3,0.3,0.7,0.5,1.3,0.5c0.6,0,1-0.2,1.3-0.5c0.3-0.3,0.5-0.7,0.5-1.2s-0.2-0.9-0.5-1.2
		c-0.3-0.3-0.7-0.5-1.3-0.5c-0.6,0-1,0.1-1.3,0.5c-0.3,0.3-0.4,0.7-0.4,1.2S110.7,15.6,111,15.9z M113.9,18.3h-3.1V32h3.1V18.3z"/>
	<path class="st0" d="M118.4,14.9v3.4h-2.2v2.3h2.2v7.8c0,0.7,0.1,1.3,0.3,1.8s0.4,0.9,0.7,1.2c0.3,0.3,0.7,0.5,1.1,0.7
		c0.4,0.1,0.9,0.2,1.4,0.2c0.5,0,0.8,0,1.2-0.1c0.3-0.1,0.6-0.1,0.9-0.2v-2.4c-0.1,0-0.3,0-0.5,0.1c-0.2,0-0.4,0-0.6,0
		c-0.2,0-0.4,0-0.6,0c-0.2,0-0.3-0.1-0.4-0.2c-0.1-0.1-0.2-0.3-0.3-0.5c-0.1-0.2-0.1-0.4-0.1-0.8v-7.7h2.4v-2.3h-2.4v-3.4H118.4z"/>
	<path class="st0" d="M129.1,25c0-0.6,0.1-1.2,0.2-1.7c0.1-0.6,0.3-1,0.6-1.4c0.3-0.4,0.6-0.7,1-1s0.9-0.4,1.5-0.4
		c0.6,0,1.1,0.1,1.5,0.4s0.8,0.6,1.1,1c0.3,0.4,0.5,0.9,0.6,1.4c0.1,0.5,0.2,1.1,0.2,1.7v0.3c0,0.6-0.1,1.2-0.2,1.8
		c-0.1,0.5-0.3,1-0.6,1.4c-0.3,0.4-0.6,0.7-1,1c-0.4,0.2-0.9,0.4-1.5,0.4c-0.6,0-1.1-0.1-1.5-0.4c-0.4-0.2-0.8-0.6-1-1
		c-0.3-0.4-0.5-0.9-0.6-1.4c-0.1-0.6-0.2-1.1-0.2-1.8V25z M126,25.3c0,1,0.1,1.9,0.4,2.8c0.3,0.9,0.7,1.6,1.2,2.2
		c0.5,0.6,1.2,1.1,2,1.5c0.8,0.3,1.7,0.5,2.7,0.5c1,0,1.9-0.2,2.7-0.5c0.8-0.3,1.5-0.8,2-1.5c0.5-0.6,1-1.4,1.2-2.2
		c0.3-0.8,0.4-1.8,0.4-2.8V25c0-1-0.2-1.9-0.4-2.8c-0.3-0.8-0.7-1.6-1.2-2.2c-0.5-0.6-1.2-1.1-2-1.5c-0.8-0.3-1.7-0.5-2.7-0.5
		s-1.9,0.2-2.7,0.5c-0.8,0.4-1.5,0.8-2,1.5c-0.6,0.6-1,1.4-1.2,2.2c-0.3,0.9-0.4,1.8-0.4,2.8V25.3z"/>
	<path class="st0" d="M154.1,15.4l3.7,10.1h-7.4L154.1,15.4z M160.2,32h1.6l-7-18.5h-1.5l-7,18.5h1.6l1.9-5.2h8.4L160.2,32z"/>
	<path class="st0" d="M164,18.3V32h1.5v-9.4c0.1-0.4,0.3-0.8,0.6-1.2c0.2-0.4,0.5-0.7,0.9-1c0.3-0.3,0.7-0.5,1.2-0.7
		c0.4-0.2,0.9-0.3,1.5-0.3c0.5,0,0.9,0.1,1.3,0.2c0.4,0.1,0.8,0.3,1,0.6c0.3,0.3,0.5,0.7,0.6,1.1c0.2,0.5,0.2,1.1,0.2,1.8v9h1.5
		v-8.9c0-0.9-0.1-1.7-0.3-2.3c-0.2-0.6-0.5-1.2-0.9-1.6c-0.4-0.4-0.8-0.7-1.4-0.9c-0.6-0.2-1.2-0.3-1.9-0.3c-0.5,0-0.9,0.1-1.4,0.2
		c-0.4,0.1-0.9,0.3-1.2,0.5c-0.4,0.2-0.7,0.5-1,0.8c-0.3,0.3-0.6,0.7-0.8,1.1l-0.1-2.3H164z"/>
	<path class="st0" d="M180.6,30.7c-0.4-0.1-0.7-0.3-1-0.6c-0.3-0.2-0.5-0.5-0.6-0.8s-0.2-0.7-0.2-1.1c0-0.5,0.1-0.9,0.3-1.3
		c0.2-0.4,0.6-0.7,1-1c0.4-0.3,0.9-0.5,1.6-0.6c0.6-0.1,1.3-0.2,2.1-0.2h2.6v3c-0.2,0.4-0.4,0.8-0.7,1.1s-0.6,0.6-1,0.9
		c-0.4,0.3-0.8,0.4-1.3,0.6c-0.5,0.1-1,0.2-1.5,0.2C181.4,30.9,181,30.8,180.6,30.7z M188.3,32v-0.2c-0.1-0.1-0.1-0.3-0.2-0.6
		c-0.1-0.2-0.1-0.4-0.1-0.7c0-0.2-0.1-0.5-0.1-0.7c0-0.3,0-0.5,0-0.8v-6.6c0-0.8-0.1-1.4-0.4-1.9c-0.2-0.6-0.6-1-1-1.4
		c-0.4-0.4-1-0.6-1.6-0.8c-0.6-0.2-1.3-0.3-2-0.3c-0.8,0-1.5,0.1-2.2,0.3c-0.7,0.2-1.2,0.5-1.7,0.9c-0.5,0.4-0.8,0.8-1.1,1.3
		c-0.2,0.5-0.4,1-0.4,1.5l1.5,0c0-0.4,0.1-0.7,0.3-1.1c0.2-0.3,0.4-0.6,0.8-0.9c0.3-0.2,0.7-0.5,1.1-0.6c0.5-0.1,1-0.2,1.5-0.2
		c1.1,0,2,0.3,2.6,0.8c0.6,0.6,0.9,1.3,0.9,2.3V24h-2.8c-1,0-1.8,0.1-2.6,0.3c-0.8,0.2-1.4,0.5-2,0.9c-0.5,0.4-1,0.9-1.2,1.4
		c-0.3,0.5-0.4,1.2-0.4,1.8c0,0.6,0.1,1.1,0.3,1.5s0.5,0.9,0.9,1.2c0.4,0.4,0.9,0.6,1.4,0.8c0.5,0.2,1.1,0.3,1.8,0.3
		c0.5,0,1-0.1,1.5-0.2c0.5-0.1,0.9-0.3,1.3-0.5c0.4-0.2,0.8-0.4,1.1-0.7c0.3-0.2,0.6-0.5,0.8-0.8c0,0.4,0.1,0.7,0.1,1
		c0.1,0.3,0.1,0.6,0.2,0.9H188.3z"/>
	<rect x="192.2" y="11.5" class="st0" width="1.5" height="19.5"/>
	<path class="st0" d="M198.1,18.3h-1.6l5.2,13.6l-0.7,1.8c-0.1,0.4-0.3,0.8-0.5,1.1c-0.2,0.3-0.4,0.6-0.6,0.8
		c-0.2,0.2-0.5,0.4-0.8,0.5c-0.3,0.1-0.7,0.2-1.1,0.2c-0.1,0-0.2,0-0.4,0l-0.4-0.1l0,1.3c0.1,0,0.1,0,0.2,0c0.1,0,0.2,0,0.3,0.1
		l0.3,0c0.1,0,0.2,0,0.3,0c0.6,0,1.1-0.1,1.6-0.3c0.4-0.2,0.8-0.5,1.1-0.9c0.3-0.4,0.5-0.7,0.7-1.1c0.2-0.4,0.3-0.7,0.4-1l5.8-15.9
		h-1.6l-4,11.5L198.1,18.3z"/>
	<path class="st0" d="M210.8,14.8v3.5h-2.5v1.2h2.5v9.2c0,0.7,0.1,1.3,0.2,1.7c0.2,0.5,0.4,0.8,0.6,1.1c0.2,0.3,0.6,0.5,0.9,0.6
		c0.4,0.1,0.8,0.2,1.2,0.2c0.3,0,0.6,0,0.9,0c0.3,0,0.5-0.1,0.7-0.2l-0.1-1.2c-0.2,0-0.4,0-0.6,0.1c-0.2,0-0.4,0-0.7,0
		c-0.2,0-0.4,0-0.7-0.1c-0.2-0.1-0.4-0.2-0.6-0.3c-0.2-0.2-0.3-0.4-0.4-0.7c-0.1-0.3-0.1-0.7-0.1-1.2v-9.2h2.9v-1.2h-2.9v-3.5H210.8
		z"/>
	<path class="st0" d="M218.2,15c0.2,0.2,0.4,0.3,0.8,0.3c0.3,0,0.6-0.1,0.8-0.3c0.2-0.2,0.3-0.4,0.3-0.7s-0.1-0.5-0.3-0.7
		c-0.2-0.2-0.4-0.3-0.8-0.3c-0.3,0-0.6,0.1-0.8,0.3c-0.2,0.2-0.3,0.5-0.3,0.7S218,14.8,218.2,15z M219.7,18.3h-1.5V32h1.5V18.3z"/>
	<path class="st0" d="M227.1,30.5c-0.6-0.3-1-0.7-1.4-1.2c-0.3-0.5-0.6-1.1-0.8-1.8c-0.1-0.7-0.2-1.4-0.2-2.1v-0.5
		c0-0.7,0.1-1.4,0.2-2.1c0.2-0.7,0.4-1.2,0.8-1.8c0.4-0.5,0.8-0.9,1.4-1.2c0.5-0.3,1.2-0.5,2-0.5c0.5,0,1,0.1,1.4,0.2
		c0.4,0.2,0.8,0.4,1.2,0.7c0.3,0.3,0.6,0.7,0.8,1.1c0.2,0.4,0.3,0.9,0.4,1.5h1.5c0-0.7-0.2-1.4-0.5-2c-0.3-0.6-0.7-1.1-1.1-1.5
		c-0.5-0.4-1-0.8-1.7-1c-0.6-0.2-1.3-0.3-2-0.3c-1,0-1.8,0.2-2.5,0.5c-0.7,0.4-1.4,0.8-1.9,1.5c-0.5,0.6-0.9,1.3-1.1,2.2
		c-0.2,0.9-0.4,1.7-0.4,2.7v0.5c0,1,0.1,1.9,0.4,2.7c0.2,0.9,0.6,1.6,1.1,2.2c0.5,0.6,1.1,1.1,1.9,1.4c0.7,0.3,1.6,0.5,2.5,0.5
		c0.7,0,1.4-0.1,2-0.3c0.6-0.2,1.2-0.5,1.7-0.9c0.5-0.4,0.9-0.9,1.1-1.4c0.3-0.5,0.5-1.1,0.5-1.8h-1.5c0,0.5-0.2,1-0.4,1.4
		c-0.2,0.4-0.5,0.7-0.9,1c-0.3,0.3-0.7,0.5-1.2,0.6c-0.4,0.1-0.9,0.2-1.4,0.2C228.3,31,227.6,30.8,227.1,30.5z"/>
	<path class="st0" d="M245,29.4c-0.2,0.3-0.4,0.6-0.7,0.8c-0.3,0.2-0.7,0.4-1.1,0.6c-0.4,0.1-1,0.2-1.5,0.2c-0.4,0-0.9,0-1.3-0.1
		c-0.4-0.1-0.8-0.2-1.2-0.5c-0.4-0.2-0.7-0.5-0.9-0.9c-0.2-0.4-0.4-0.8-0.4-1.4h-1.5c0,0.5,0.1,1,0.3,1.5c0.2,0.5,0.6,0.9,1.1,1.3
		c0.4,0.4,1,0.7,1.7,0.9c0.7,0.2,1.4,0.3,2.3,0.3c0.8,0,1.5-0.1,2.1-0.3c0.6-0.2,1.1-0.4,1.6-0.8c0.4-0.3,0.8-0.7,1-1.2
		c0.2-0.5,0.3-1,0.3-1.5c0-0.6-0.1-1-0.3-1.5c-0.2-0.4-0.5-0.8-0.9-1.1c-0.4-0.3-0.9-0.6-1.5-0.8c-0.6-0.2-1.3-0.5-2.1-0.6
		c-0.8-0.2-1.4-0.3-1.9-0.5c-0.5-0.2-0.9-0.4-1.1-0.6c-0.3-0.2-0.4-0.4-0.5-0.7c-0.1-0.2-0.1-0.5-0.1-0.8c0-0.3,0-0.6,0.2-0.9
		c0.1-0.3,0.3-0.5,0.6-0.8c0.3-0.2,0.6-0.4,1-0.6c0.4-0.1,0.9-0.2,1.5-0.2c0.6,0,1.1,0.1,1.5,0.2c0.4,0.2,0.8,0.4,1.1,0.6
		c0.3,0.3,0.5,0.6,0.7,0.9c0.2,0.3,0.2,0.7,0.2,1h1.5c0-0.6-0.1-1.1-0.4-1.6c-0.2-0.5-0.6-0.9-1-1.3c-0.4-0.4-1-0.7-1.6-0.9
		c-0.6-0.2-1.3-0.3-2.1-0.3c-0.8,0-1.4,0.1-2,0.3c-0.6,0.2-1.1,0.5-1.5,0.8c-0.4,0.3-0.8,0.7-1,1.2c-0.2,0.5-0.3,0.9-0.3,1.4
		c0,0.6,0.1,1.1,0.3,1.5c0.2,0.4,0.5,0.8,0.9,1.1c0.4,0.3,0.9,0.5,1.5,0.8c0.6,0.2,1.3,0.4,2,0.6c0.8,0.2,1.4,0.4,1.9,0.6
		c0.5,0.2,0.8,0.4,1.1,0.7c0.3,0.2,0.4,0.5,0.5,0.8c0.1,0.3,0.1,0.6,0.1,0.9C245.2,28.8,245.1,29.1,245,29.4z"/>
<g>
	<polygon class="st1" points="0,0 0,20.1 19.8,0 	"/>
	<polygon class="st2" points="0,32 0,45 20.9,45 8.3,24.6 	"/>
	<polygon class="st3" points="33.6,45 45,45 45,0 32.3,0 14.6,18 	"/>
</g>
</svg>
