<svg xmlns="http://www.w3.org/2000/svg" viewBox="0 0 997.98 295.736"><g><path fill="#234C80" d="M997.861,199.164h-30.58c0,0-0.154-65.211-0.154-68.691 c0-8.77-8.938-15.187-20.248-15.187c-16.768,0-20.969,15.187-20.969,15.187l0.188,68.691h-30.203V92.811h22.139l4.486,8.623 c14.318-10.109,30.245-11.074,46.626-6.787c14.808,3.875,24.986,13.936,28.715,28.727 		C998.13,124.435,997.861,199.164,997.861,199.164z"/><path fill="#234C80" d="M465.015,52.453h31.637c0,0,0.196,65.5,0.17,97.08 c-0.027,33.119-21.125,47.783-45.46,51.584c-16.007,2.5-31.953,1.712-46.981-5.006c-16.119-7.206-24.861-20.238-25.173-37.645 c-0.597-33.312-0.23-106.014-0.23-106.014h31.162c0,0-0.038,66.354,0.024,95.178c0.008,3.809,0.086,7.729,0.95,11.404 c2.294,9.753,9.33,14.76,18.698,16.277c4.687,0.76,9.727,0.702,14.408-0.121c14.497-2.549,20.792-10.445,20.803-25.264 C465.043,120.605,465.015,52.453,465.015,52.453z"/><path fill="#234C80" d="M712.606,46.934c10.535,0,20.297,0,30.779,0 c0,15.833,0,33.525,0,50.085c11.148-5.727,22.159-6.158,33.395-5.439c22.151,1.418,37.386,16.405,37.932,38.618 c0.537,21.819,0.297,68.966,0.297,68.966h-30.261c0,0,0.082-66.861-0.004-68.691c0-7.142-8.729-15.187-19.931-15.187 c-17.202,0-21.428,15.186-21.428,15.186c0,21.48,0,68.691,0,68.691h-30.779C712.606,199.164,712.606,49.508,712.606,46.934z"/><path fill="#234C80" d="M696.49,190.349c-14.73,10.212-31.019,11.938-47.938,11.128 c-13.157-0.631-25.352-4.037-35.434-12.795c-14.33-12.446-18.405-28.955-16.623-46.992c3.329-33.674,29.953-47.422,56.024-49.086 c14.482-0.926,28.197,1.322,40.547,9.463c0.816,0.537,1.576,1.161,2.62,1.937c-4.386,7.007-8.695,13.892-13.227,21.132 c-7.657-5.893-15.999-9.189-25.735-8.979c-16.527,0.355-27.717,10.386-28.898,26.898c-0.328,4.594-0.116,9.359,0.729,13.881 c2.411,12.9,11.291,19.865,24.347,20.817c11.847,0.864,22.362-1.899,31.941-9.946C688.938,175.729,692.71,183.03,696.49,190.349z"/><path fill="#234C80" d="M545.627,100.024c16.298-9.851,32.978-9.61,50.184-2.899 c-4.58,8.365-8.777,16.032-12.83,23.434c-4.756-1.504-9.039-3.586-13.51-4.135c-12.688-1.559-23.708,8.821-23.844,22.344 c-0.182,18.144,0,60.396,0,60.396H515.43c0,0,0-69.36,0-104.355c9.908,0,20.004,0,30.197,0 C545.822,96.233,545.32,97.785,545.627,100.024z"/><polygon fill="#234C80" points="874.304,199.164 843.871,199.164 843.926,116.57 829.354,116.57 833.531,92.811 874.304,92.812"/><path fill="#234C80" d="M857.168,52.453c9.913-0.049,17.51,7.421,17.488,16.5 c-0.02,8.436-8.228,16.605-17.364,16.5c-9.323-0.109-17.2-7.963-17.204-16.5C840.085,60.131,847.585,52.5,857.168,52.453z"/></g><radialGradient id="grdnt1" cx="163.771" cy="111.7114" r="135.2324" fx="163.9436" fy="214.5525" gradientUnits="userSpaceOnUse"><stop offset="0" style="stop-color:#40659F"/><stop offset="0.2378" style="stop-color:#3A5F98"/><stop offset="0.5902" style="stop-color:#295186"/><stop offset="0.6994" style="stop-color:#234C80"/></radialGradient><path style="fill:url(#grdnt1);" d="M280.472,202.423c-80.923,0-160.807,0-241.574,0 c11.216-10.712,21.943-20.955,32.669-31.197c-0.146-0.41-0.293-0.82-0.44-1.23C47.882,168.903,24.638,167.81,0,166.652 c22.672-8.402,44.082-16.336,65.492-24.27c0.029-0.384,0.057-0.768,0.085-1.151c-21.035-7.79-42.069-15.581-63.104-23.37 c0.025-0.354,0.051-0.709,0.077-1.062c22.771-1.045,45.542-2.09,68.313-3.136c0.187-0.412,0.375-0.825,0.562-1.237 c-16.979-13.82-33.959-27.641-52.007-42.332c23.763,6.293,46.141,12.219,69.886,18.508C78.243,69.644,67.89,51.903,57.537,34.161 c0.219-0.301,0.438-0.603,0.658-0.905c18.445,12.015,36.891,24.029,56.442,36.765c-2.928-21.047-5.681-40.834-8.434-60.622 c0.352-0.181,0.705-0.362,1.057-0.543c12.553,16.758,25.105,33.515,38.452,51.333c5.59-20.846,10.845-40.445,16.101-60.043 c0.305-0.049,0.611-0.097,0.917-0.146c5.238,19.593,10.477,39.186,16.092,60.183c13.221-17.632,25.807-34.417,38.393-51.203 c0.387,0.098,0.772,0.196,1.158,0.293c-2.748,19.81-5.496,39.621-8.428,60.748c19.536-12.737,37.971-24.757,56.404-36.776 c0.27,0.237,0.539,0.475,0.809,0.712c-10.396,17.806-20.793,35.612-31.899,54.633c23.548-6.235,45.743-12.112,67.94-17.989 c0.147,0.227,0.295,0.453,0.443,0.68c-16.793,13.681-33.584,27.361-50.375,41.042c0.095,0.442,0.189,0.886,0.285,1.329 c22.797,1.039,45.596,2.078,68.393,3.118c0.08,0.347,0.159,0.694,0.238,1.042c-21,7.777-42,15.557-63,23.334 c-0.086,0.385-0.172,0.77-0.259,1.154c21.44,7.953,42.882,15.905,65.618,24.338c-24.662,1.164-47.936,2.262-72.64,3.428 C261.81,181.288,270.876,191.554,280.472,202.423z"/><g><path fill="#234C80" d="M659.296,230.812c-1.015-0.507-2.029-0.71-2.942-0.71c-2.586,0-3.804,2.029-3.804,5.528v5.275h5.63 v1.928h-5.63v22.418h-2.231v-22.418h-3.348v-1.725l3.348-0.203v-5.427c0-4.818,2.181-7.304,6.035-7.304 c1.116,0,2.435,0.304,3.551,0.812L659.296,230.812z"/><path fill="#234C80" d="M663.304,240.906h1.928l0.203,4.514h0.151c1.623-2.992,4.008-5.122,6.898-5.122 c0.913,0,1.623,0.102,2.435,0.507l-0.507,2.029c-0.812-0.305-1.269-0.406-2.232-0.406c-2.181,0-4.768,1.674-6.645,6.238v16.586 h-2.231V240.906z"/><path fill="#234C80" d="M688.259,240.298c5.884,0,10.956,4.666,10.956,12.832c0,8.064-5.072,12.73-10.956,12.73 c-5.833,0-10.904-4.666-10.904-12.73C677.354,244.964,682.426,240.298,688.259,240.298z M688.259,263.883 c4.92,0,8.623-4.362,8.623-10.753c0-6.441-3.703-10.854-8.623-10.854s-8.571,4.413-8.571,10.854 C679.688,259.521,683.339,263.883,688.259,263.883z"/><path fill="#234C80" d="M706.521,240.906h1.928l0.203,3.753h0.151c2.182-2.485,4.971-4.361,7.659-4.361 c3.905,0,5.884,1.978,6.746,4.971c2.789-3.044,5.478-4.971,8.268-4.971c4.869,0,7.303,3.043,7.303,9.332v15.622h-2.282v-15.317 c0-5.174-1.725-7.608-5.427-7.608c-2.282,0-4.615,1.521-7.304,4.565v18.36h-2.231v-15.317c0-5.174-1.725-7.608-5.479-7.608 c-2.181,0-4.615,1.521-7.303,4.565v18.36h-2.232V240.906z"/><path fill="#234C80" d="M807.377,260.32v9.271l-10.868,2.508c-3.75,0.861-7.93,1.292-12.54,1.292 c-9.627,0-17.075-3.064-22.344-9.195c-4.408-5.168-6.612-11.273-6.612-18.316c0-7.752,2.686-14.338,8.057-19.76 c5.775-5.776,13.324-8.664,22.647-8.664c3.952,0,7.828,0.532,11.628,1.596c3.496,0.963,6.84,2.534,10.032,4.712l-6.308,6.004 l-2.66,0.608l1.899-3.062c-4.915-4.798-10.336-7.197-16.264-7.197c-6.08,0-11.109,2.094-15.086,6.279 c-3.979,4.188-5.966,9.578-5.966,16.175c0,7.51,2.405,13.93,7.22,19.257c5.168,5.684,11.729,8.524,19.685,8.524 c3.292,0,6.51-0.633,9.651-1.899v-12.236l-11.476,0.608l6.08-3.269h16.111l-1.976,1.9c-0.406,0.406-0.659,0.811-0.76,1.216 C807.427,257.584,807.377,258.8,807.377,260.32z"/><path fill="#234C80" d="M852.597,254.771c0,4.814-1.672,9.02-5.017,12.616c-3.647,3.902-8.411,5.853-14.288,5.853 c-5.675,0-10.286-1.925-13.832-5.776c-3.142-3.445-4.712-7.498-4.712-12.16c0-5.065,1.862-9.411,5.586-13.034 c3.725-3.621,8.424-5.434,14.099-5.434c5.37,0,9.804,1.851,13.3,5.548C850.975,245.83,852.597,249.959,852.597,254.771z  M835.04,270.96c3.293,0,5.877-1.292,7.752-3.876c1.521-2.077,2.28-4.889,2.28-8.436c0-4.408-0.912-8.486-2.736-12.236 c-2.382-4.813-5.675-7.22-9.88-7.22c-2.635,0-4.915,0.861-6.84,2.584c-2.331,2.078-3.496,5.168-3.496,9.271 c0,4.611,1.014,8.867,3.04,12.769C827.593,268.579,830.886,270.96,835.04,270.96z"/><path fill="#234C80" d="M895.309,254.771c0,4.814-1.672,9.02-5.017,12.616c-3.647,3.902-8.411,5.853-14.288,5.853 c-5.675,0-10.286-1.925-13.832-5.776c-3.142-3.445-4.712-7.498-4.712-12.16c0-5.065,1.862-9.411,5.586-13.034 c3.725-3.621,8.424-5.434,14.099-5.434c5.37,0,9.804,1.851,13.3,5.548C893.687,245.83,895.309,249.959,895.309,254.771z  M877.752,270.96c3.293,0,5.877-1.292,7.752-3.876c1.521-2.077,2.28-4.889,2.28-8.436c0-4.408-0.912-8.486-2.736-12.236 c-2.382-4.813-5.675-7.22-9.88-7.22c-2.635,0-4.915,0.861-6.84,2.584c-2.331,2.078-3.496,5.168-3.496,9.271 c0,4.611,1.014,8.867,3.04,12.769C870.305,268.579,873.598,270.96,877.752,270.96z"/><path fill="#234C80" d="M929.052,240.484h-4.712c3.598,2.993,5.396,6.418,5.396,10.273c0,2.487-0.659,4.668-1.977,6.545 c-0.861,1.218-2.331,2.64-4.407,4.262c-1.419,1.422-2.128,2.665-2.128,3.729c0,1.168,0.657,2.259,1.976,3.273l2.736,2.13 c2.128,1.624,3.622,3.07,4.483,4.338c1.267,1.827,1.9,3.932,1.9,6.316c0,3.856-1.698,7.153-5.092,9.895 c-3.75,2.992-8.716,4.49-14.896,4.49c-5.219,0-9.323-1.115-12.312-3.345c-2.686-1.976-4.028-4.483-4.028-7.523 c0-3.852,1.95-6.942,5.852-9.272c3.142-1.875,7.98-3.04,14.517-3.496c-1.521-1.938-2.28-3.629-2.28-5.071 c0-0.746,0.253-1.715,0.76-2.908c-1.114,0-1.926,0-2.432,0c-3.851,0-6.967-1.241-9.348-3.725c-2.18-2.279-3.269-5.016-3.269-8.208 c0-4.053,1.634-7.459,4.902-10.222c3.268-2.761,7.79-4.142,13.565-4.142h15.656L929.052,240.484z M927.229,284.336 c0-1.824-0.659-3.471-1.977-4.94c-1.014-1.114-3.115-2.812-6.308-5.092c-0.406-0.051-0.988-0.076-1.748-0.076 c-2.939,0-5.599,0.405-7.98,1.217c-4.357,1.52-6.535,4.129-6.535,7.827c0,2.736,1.228,4.966,3.686,6.688 c2.457,1.722,5.687,2.584,9.69,2.584c3.546,0,6.333-0.786,8.359-2.356C926.29,288.718,927.229,286.768,927.229,284.336z  M915.98,261.992c2.025,0,3.749-0.709,5.168-2.128c1.266-1.267,1.899-3.116,1.899-5.548c0-3.192-0.811-6.206-2.432-9.045 c-1.875-3.292-4.256-4.939-7.144-4.939c-2.636,0-4.587,1.115-5.853,3.344c-0.76,1.268-1.14,2.863-1.14,4.788 c0,3.091,0.76,5.979,2.279,8.664C910.584,260.371,912.99,261.992,915.98,261.992z"/><path fill="#234C80" d="M954.283,270.58l-2.812,1.672H938.02c1.368-1.775,2.052-3.119,2.052-4.034v-12.407 c0-7.001,0.102-14.435,0.305-22.301c0.151-2.942,0.304-7.026,0.456-12.254h-5.929l5.7-2.66h10.868 c-1.318,0.76-2.154,1.344-2.508,1.748c-0.456,0.559-0.761,1.471-0.912,2.736c-0.456,4.256-0.685,12.895-0.685,25.916v17.556 c0,1.368,0.178,2.28,0.532,2.736s1.19,0.76,2.508,0.912C951.269,270.251,952.561,270.378,954.283,270.58z"/><path fill="#234C80" d="M987.344,266.78l-4.028,3.8c-0.963,0.558-2.686,1.318-5.168,2.28 c-1.47,0.354-3.04,0.531-4.712,0.531c-3.952,0-7.322-0.987-10.108-2.964c-2.534-1.824-4.51-4.256-5.928-7.296 c-1.216-2.786-1.824-5.7-1.824-8.74c0-5.472,1.926-9.88,5.776-13.224c3.344-2.888,7.22-4.332,11.628-4.332 c3.04,0,5.649,0.71,7.828,2.128c2.533,1.622,4.306,4.13,5.32,7.524l-17.86,7.22l-5.852,0.456 c0.911,4.712,2.861,8.462,5.852,11.248c2.837,2.686,6.104,4.028,9.804,4.028C980.705,269.44,983.797,268.554,987.344,266.78z  M962.34,253.936l13.832-6.004c1.469-0.657,2.204-1.342,2.204-2.052c0-1.569-0.761-3.052-2.28-4.446 c-1.521-1.393-3.269-2.09-5.244-2.09c-2.027,0-3.851,0.735-5.472,2.204c-2.18,1.926-3.269,4.712-3.269,8.36 C962.111,249.858,962.188,251.2,962.34,253.936z"/></g><g><path fill="#234C80" d="M990.069,235.207h-1.695v-0.323h3.753v0.323h-1.687v4.996h-0.371V235.207z"/><path fill="#234C80" d="M993.097,234.884h0.517l1.114,3.124l0.419,1.179h0.032l0.412-1.179l1.105-3.124h0.525v5.319h-0.363 v-3.495c0-0.436,0.024-0.993,0.048-1.437h-0.032l-0.411,1.17l-1.146,3.181h-0.323l-1.146-3.181l-0.42-1.17h-0.032 c0.016,0.443,0.04,1.001,0.04,1.437v3.495h-0.339V234.884z"/></g></svg>
